<?xml version="1.0" encoding="UTF-8"?>
<svg width="46px" height="33px" viewBox="0 0 46 33" version="1.1" xmlns="http://www.w3.org/2000/svg" xmlns:xlink="http://www.w3.org/1999/xlink">
    <!-- Generator: Sketch 55.2 (78181) - https://sketchapp.com -->
    <title>Shape</title>
    <desc>Created with Sketch.</desc>
    <g id="Page-1" stroke="none" stroke-width="1" fill="none" fill-rule="evenodd">
        <g id="Pharmacy-shots-desktop-sm-tab-1-phase-2" transform="translate(-1003.000000, -379.000000)" fill="#FFFFFF" fill-rule="nonzero">
            <g id="CVS_Health_Icon_healthcare_medical_drug_delivery_cmyk_c" transform="translate(1003.000000, 379.000000)">
                <path d="M32.5591203,33 C30.9082744,33 29.3545371,32.3459716 28.1753614,31.1374408 C27.0100584,29.943128 26.3580437,28.3507109 26.3580437,26.6445498 C26.3580437,26.6161137 26.3580437,26.6018957 26.3580437,26.5734597 L17.0494925,26.5734597 C17.0494925,26.6018957 17.0494925,26.6161137 17.0494925,26.6445498 C17.0494925,30.1421801 14.2749616,32.985782 10.8622885,32.985782 C9.21144263,32.985782 7.65770532,32.3317536 6.47852968,31.1232227 C5.3132267,29.92891 4.66121193,28.3364929 4.66121193,26.6303318 C4.66121193,26.6018957 4.66121193,26.5876777 4.66121193,26.5592417 L0,26.5592417 L0,11.5165877 C0,4.08056872 3.62076284,0 10.1964011,0 C13.3593663,0 21.044817,0 26.1222086,0 C28.3834512,0 30.0342971,0 30.3394955,0 C31.5186712,0 32.6978468,0.383886256 33.7521686,1.10900474 C34.6677638,1.73459716 35.4723777,2.60189573 36.0966472,3.61137441 C36.2353737,3.85308057 41.9786527,12.9241706 44.9890188,17.6872038 L45.1,17.8720379 L45.1,26.5876777 L38.7324516,26.5876777 C38.7324516,26.6161137 38.7324516,26.6303318 38.7324516,26.6587678 C38.7324516,28.3507109 38.0943094,29.943128 36.9151338,31.1516588 C35.7637035,32.3459716 34.2099662,33 32.5591203,33 Z M32.5591203,21.7962085 C29.9371886,21.7962085 27.8146724,23.985782 27.8146724,26.6587678 C27.8146724,29.3459716 29.9510612,31.521327 32.5591203,31.521327 C35.181052,31.521327 37.3035681,29.3317536 37.3035681,26.6587678 C37.3035681,23.971564 35.181052,21.7962085 32.5591203,21.7962085 Z M10.8622885,21.7962085 C8.24035681,21.7962085 6.11784066,23.985782 6.11784066,26.6587678 C6.11784066,29.3459716 8.25422947,31.521327 10.8622885,31.521327 C13.4842202,31.521327 15.6067364,29.3317536 15.6067364,26.6587678 C15.6067364,23.971564 13.4842202,21.7962085 10.8622885,21.7962085 Z M38.5659797,25.1090047 L43.6711166,25.1090047 L43.6711166,18.2843602 C43.4491541,17.92891 42.9636112,17.1611374 42.3115964,16.1374408 L30.9498923,16.1374408 L30.9498923,6.11374408 L35.9717933,6.11374408 C35.3336512,5.1042654 34.9174715,4.43601896 34.8758536,4.36492891 C34.3625654,3.52606635 33.7105506,2.81516588 32.9614273,2.30331754 C32.129068,1.73459716 31.2550907,1.45023697 30.3533682,1.45023697 C30.0481698,1.45023697 28.3973239,1.45023697 26.1360812,1.45023697 C21.044817,1.45023697 13.373239,1.46445498 10.2102738,1.46445498 C7.24152568,1.46445498 4.99415564,2.37440758 3.53752691,4.16587678 C2.15026146,5.85781991 1.45662873,8.33175355 1.45662873,11.5165877 L1.45662873,14.6729858 L5.96524146,14.6729858 L5.96524146,20.957346 L1.44275608,20.957346 L1.44275608,25.1232227 L4.8554291,25.1232227 C5.11900954,24.014218 5.67391572,23.0047393 6.49240234,22.1800948 C7.65770532,20.985782 9.21144263,20.3175355 10.8761612,20.3175355 C12.5270071,20.3175355 14.0807444,20.971564 15.25992,22.1800948 C16.064534,23.0047393 16.6194402,24.014218 16.8968933,25.1232227 L26.5800062,25.1232227 C26.8435866,24.014218 27.3984928,23.0047393 28.2031067,22.1800948 C29.3684097,20.985782 30.922147,20.3175355 32.5868656,20.3175355 L32.5868656,20.3175355 C34.2377115,20.3175355 35.7914488,20.971564 36.9706244,22.1800948 C37.7336204,22.9905213 38.3023993,24.014218 38.5659797,25.1090047 Z M1.44275608,19.464455 L4.50861273,19.464455 L4.50861273,16.1374408 L1.44275608,16.1374408 L1.44275608,19.464455 Z M38.1081821,14.6587678 L41.3682559,14.6587678 C39.9671178,12.4407583 38.233036,9.68246445 36.9012612,7.59241706 L32.3926484,7.59241706 L32.3926484,8.7014218 C33.8770225,8.80094787 35.2504153,9.4549763 36.3186097,10.535545 C37.4006767,11.6445498 38.0249462,13.1090047 38.1081821,14.6587678 Z M32.3926484,14.6587678 L36.665426,14.6587678 C36.4989542,12.2985782 34.6816364,10.3933649 32.3926484,10.1800948 L32.3926484,14.6587678 L32.3926484,14.6587678 Z M32.5591203,29.6303318 C30.963765,29.6303318 29.6597355,28.2938389 29.6597355,26.6587678 C29.6597355,25.0236967 30.963765,23.6872038 32.5591203,23.6872038 C34.1544755,23.6872038 35.4585051,25.0236967 35.4585051,26.6587678 C35.4585051,28.2938389 34.1544755,29.6303318 32.5591203,29.6303318 Z M32.5591203,25.1658768 C31.7545063,25.1658768 31.1024915,25.8341232 31.1024915,26.6587678 C31.1024915,27.4834123 31.7545063,28.1516588 32.5591203,28.1516588 C33.3637342,28.1516588 34.015749,27.4834123 34.015749,26.6587678 C34.015749,25.8341232 33.3637342,25.1658768 32.5591203,25.1658768 Z M10.8622885,29.6303318 C9.26693325,29.6303318 7.96290372,28.2938389 7.96290372,26.6587678 C7.96290372,25.0236967 9.26693325,23.6872038 10.8622885,23.6872038 C12.4576438,23.6872038 13.7616733,25.0236967 13.7616733,26.6587678 C13.7616733,28.2938389 12.4576438,29.6303318 10.8622885,29.6303318 Z M10.8622885,25.1658768 C10.0576746,25.1658768 9.4056598,25.8341232 9.4056598,26.6587678 C9.4056598,27.4834123 10.0576746,28.1516588 10.8622885,28.1516588 C11.6669025,28.1516588 12.3189173,27.4834123 12.3189173,26.6587678 C12.3189173,25.8341232 11.6669025,25.1658768 10.8622885,25.1658768 Z M23.333805,21.4407583 L18.6587204,21.4407583 C17.9789603,21.4407583 17.3269456,21.1706161 16.8552753,20.6729858 C16.383605,20.1753555 16.1200246,19.521327 16.1200246,18.8246445 L16.1200246,10.8625592 L14.3443248,10.8625592 L14.3443248,6.73933649 L16.1200246,6.73933649 L16.1200246,4.84834123 L25.8447555,4.84834123 L25.8447555,6.72511848 L27.6204552,6.72511848 L27.6204552,10.8483412 L25.8447555,10.8483412 L25.8447555,18.8104265 C25.8308828,20.2890995 24.7349431,21.4407583 23.333805,21.4407583 Z M17.548908,10.8483412 L17.548908,18.8104265 C17.548908,19.1232227 17.6598893,19.4075829 17.8679791,19.6208531 C18.0760689,19.8341232 18.353522,19.9620853 18.6587204,19.9620853 L23.333805,19.9620853 C23.9303291,19.9620853 24.3881267,19.464455 24.3881267,18.8104265 L24.3881267,10.8483412 L17.548908,10.8483412 L17.548908,10.8483412 Z M15.7732082,9.36966825 L26.1638265,9.36966825 L26.1638265,8.18957346 L24.3881267,8.18957346 L24.3881267,6.31279621 L17.548908,6.31279621 L17.548908,8.18957346 L15.7732082,8.18957346 L15.7732082,9.36966825 L15.7732082,9.36966825 Z" id="Shape"></path>
            </g>
        </g>
    </g>
</svg>