<svg width="660px" height="87px" viewBox="0 0 660 87" version="1.1" xmlns="http://www.w3.org/2000/svg" xmlns:xlink="http://www.w3.org/1999/xlink">
    <!-- Generator: Sketch 46.2 (44496) - http://www.bohemiancoding.com/sketch -->
    <desc>Created with Sketch.</desc>
    <defs/>
    <g id="Symbols" stroke="none" stroke-width="1" fill="none" fill-rule="evenodd">
        <g id="!UI-Kit-/-Logos-/-regular-/-CVS-Pharmacy" transform="translate(0.000000, 1.000000)" fill="#CC0000">
            <g id="Page-1" transform="translate(0.000000, -1.000000)">
                <g id="Group-3" transform="translate(0.000000, 0.916000)">
                    <path d="M24.390877,0.092 C21.806877,0.092 19.220877,1.078 17.247877,3.059 L2.95187701,17.356 C-0.986122992,21.293 -0.986122992,27.703 2.96487701,31.651 L43.312877,72.002 L83.661877,31.651 C87.611877,27.705 87.601877,21.303 83.652877,17.356 L69.367877,3.065 C67.392877,1.082 64.808877,0.094 62.228877,0.094 C59.634877,0.094 57.042877,1.09 55.060877,3.08 L43.312877,14.828 L31.548877,3.065 C29.574877,1.082 26.982877,0.092 24.390877,0.092 L24.390877,0.092 Z M157.382877,1.912 L179.683877,1.912 L191.156877,45.969 L203.441877,1.912 L224.923877,1.912 L201.986877,70.09 L180.230877,70.09 L157.382877,1.912 Z M162.025877,43.604 C160.841877,61.533 149.007877,72.002 129.437877,72.002 C107.681877,72.002 94.392877,58.168 94.392877,36.047 C94.392877,13.744 107.773877,0 128.982877,0 C148.736877,0 160.388877,10.014 161.660877,27.672 L140.814877,27.672 C140.177877,20.752 136.265877,17.111 129.255877,17.111 C120.699877,17.111 116.421877,23.395 116.421877,36.047 C116.421877,48.428 121.062877,54.891 129.892877,54.891 C136.536877,54.891 140.724877,50.883 141.363877,43.604 L162.025877,43.604 Z M242.400877,48.791 C243.492877,53.889 246.406877,55.709 252.411877,55.709 C257.691877,55.709 260.605877,53.797 260.605877,50.793 C260.605877,46.512 256.693877,46.151 248.589877,44.057 C239.122877,41.602 233.025877,39.506 230.202877,37.502 C224.923877,33.772 222.372877,28.49 222.372877,21.756 C222.372877,8.557 232.753877,0 250.865877,0 C268.433877,0 278.810877,7.738 279.994877,21.483 L259.329877,21.483 C258.603877,17.385 255.781877,15.475 250.501877,15.475 C245.857877,15.475 243.583877,17.022 243.583877,20.117 C243.583877,23.76 247.132877,24.397 253.687877,26.125 C262.152877,28.313 268.888877,29.674 273.167877,32.588 C279.175877,36.592 281.904877,41.508 281.904877,48.518 C281.904877,63.356 271.255877,72.002 251.503877,72.002 C233.206877,72.002 222.464877,63.356 221.099877,48.791 L242.400877,48.791 Z M606.160877,85.36 L606.160877,78 L606.400877,78 C607.357877,78.321 608.558877,78.479 609.999877,78.479 C613.437877,78.479 614.956877,77.28 616.156877,73.92 L617.835877,69.201 L602.322877,28.973 L611.917877,28.973 L619.515877,50.487 C620.794877,54.086 622.234877,59.043 622.234877,59.043 L622.396877,59.043 C622.396877,59.043 623.673877,54.086 624.952877,50.487 L632.230877,28.973 L641.509877,28.973 L624.952877,74.399 C621.835877,83.197 618.794877,85.916 611.679877,85.916 C609.601877,85.916 607.997877,85.758 606.160877,85.36 L606.160877,85.36 Z M562.497877,49.608 C562.497877,37.451 570.333877,27.934 582.730877,27.934 C593.046877,27.934 599.525877,33.854 600.966877,42.649 L592.007877,42.649 C591.208877,38.25 587.929877,35.291 583.050877,35.291 C575.533877,35.291 571.695877,41.209 571.695877,49.608 C571.695877,57.924 575.455877,63.924 582.972877,63.924 C588.327877,63.924 591.769877,61.043 592.410877,55.688 L601.205877,55.688 C600.486877,64.885 593.767877,71.363 583.130877,71.363 C570.415877,71.363 562.497877,61.764 562.497877,49.608 L562.497877,49.608 Z M547.066877,55.367 L547.066877,48.889 C545.066877,50.086 541.947877,50.889 538.988877,51.526 C533.070877,52.807 529.552877,53.926 529.552877,58.723 C529.552877,63.205 532.591877,64.565 536.429877,64.565 C543.548877,64.565 547.066877,59.684 547.066877,55.367 L547.066877,55.367 Z M546.986877,64.885 C544.665877,68.082 541.066877,71.043 534.189877,71.043 C526.193877,71.043 520.355877,66.963 520.355877,58.965 C520.355877,49.608 527.792877,47.047 537.230877,45.688 C543.468877,44.727 546.904877,44.17 546.904877,40.49 C546.904877,36.971 544.109877,34.811 539.148877,34.811 C533.630877,34.811 530.992877,36.971 530.753877,41.77 L522.195877,41.77 C522.433877,34.252 527.632877,28.094 539.070877,28.094 C550.187877,28.094 555.863877,32.653 555.863877,42.328 L555.863877,60.324 C555.863877,63.283 556.503877,64.565 559.384877,64.004 L559.622877,64.004 L559.622877,69.842 C558.744877,70.321 557.542877,70.723 555.464877,70.723 C550.425877,70.723 547.785877,69.043 547.066877,64.885 L546.986877,64.885 Z M456.859877,28.973 L465.656877,28.973 L465.656877,34.653 L465.896877,34.653 C468.214877,30.813 472.374877,27.934 477.894877,27.934 C483.009877,27.934 487.091877,30.731 489.009877,35.213 L489.169877,35.213 C491.890877,30.653 496.447877,27.934 501.646877,27.934 C509.724877,27.934 514.759877,33.213 514.759877,42.01 L514.759877,70.162 L505.644877,70.162 L505.644877,43.209 C505.644877,38.332 502.843877,35.692 498.847877,35.692 C493.968877,35.692 490.288877,39.692 490.288877,45.53 L490.288877,70.162 L481.253877,70.162 L481.253877,43.209 C481.253877,38.332 478.693877,35.692 474.615877,35.692 C469.894877,35.692 465.896877,39.692 465.896877,45.53 L465.896877,70.162 L456.859877,70.162 L456.859877,28.973 Z M438.708877,35.772 L438.949877,35.772 C441.427877,31.371 444.786877,28.653 449.902877,28.653 C451.103877,28.653 451.824877,28.735 452.462877,28.973 L452.462877,37.209 L452.222877,37.209 C451.663877,37.051 450.943877,36.971 450.064877,36.971 C443.824877,36.971 438.949877,41.209 438.949877,49.047 L438.949877,70.162 L429.910877,70.162 L429.910877,28.973 L438.708877,28.973 L438.708877,35.772 Z M412.320877,55.367 L412.320877,48.889 C410.322877,50.086 407.201877,50.889 404.244877,51.526 C398.324877,52.807 394.806877,53.926 394.806877,58.723 C394.806877,63.205 397.845877,64.565 401.683877,64.565 C408.802877,64.565 412.320877,59.684 412.320877,55.367 L412.320877,55.367 Z M412.240877,64.885 C409.921877,68.082 406.324877,71.043 399.445877,71.043 C391.447877,71.043 385.609877,66.963 385.609877,58.965 C385.609877,49.608 393.044877,47.047 402.482877,45.688 C408.720877,44.727 412.161877,44.17 412.161877,40.49 C412.161877,36.971 409.361877,34.811 404.402877,34.811 C398.884877,34.811 396.245877,36.971 396.003877,41.77 L387.447877,41.77 C387.687877,34.252 392.886877,28.094 404.322877,28.094 C415.439877,28.094 421.117877,32.653 421.117877,42.328 L421.117877,60.324 C421.117877,63.283 421.757877,64.565 424.636877,64.004 L424.876877,64.004 L424.876877,69.842 C423.995877,70.321 422.796877,70.723 420.718877,70.723 C415.679877,70.723 413.042877,69.043 412.320877,64.885 L412.240877,64.885 Z M353.382877,34.41 L353.622877,34.41 C356.583877,30.252 360.259877,27.934 366.019877,27.934 C374.576877,27.934 380.013877,33.692 380.013877,42.49 L380.013877,70.162 L370.978877,70.162 L370.978877,43.61 C370.978877,38.811 368.019877,35.772 362.980877,35.772 C357.460877,35.772 353.382877,39.93 353.382877,46.008 L353.382877,70.162 L344.343877,70.162 L344.343877,12.977 L353.382877,12.977 L353.382877,34.41 Z M329.156877,49.846 C329.156877,41.53 325.955877,35.371 318.759877,35.371 C311.081877,35.371 307.722877,41.85 307.722877,49.846 C307.722877,57.924 311.242877,63.764 318.997877,63.764 C325.476877,63.764 329.156877,58.324 329.156877,49.846 L329.156877,49.846 Z M299.003877,28.973 L307.800877,28.973 L307.800877,34.41 L308.040877,34.41 C310.839877,30.572 314.839877,27.934 320.597877,27.934 C331.314877,27.934 338.353877,36.49 338.353877,49.688 C338.353877,62.963 331.314877,71.363 320.515877,71.363 C314.839877,71.363 311.001877,69.281 308.201877,65.444 L308.040877,65.444 L308.040877,85.36 L299.003877,85.36 L299.003877,28.973 Z" id="Fill-1"/>
                </g>
                <path d="M653.3475,24.4252 C654.1985,24.4252 654.9485,24.3422 654.9485,23.3412 C654.9485,22.5082 654.1325,22.4072 653.4475,22.4072 L652.0805,22.4072 L652.0805,24.4252 L653.3475,24.4252 Z M652.0805,28.3452 L650.9465,28.3452 L650.9465,21.4402 L653.5645,21.4402 C655.2325,21.4402 656.0825,22.0242 656.0825,23.4252 C656.0825,24.6762 655.3165,25.1922 654.2815,25.3092 L656.2165,28.3452 L654.9325,28.3452 L653.1475,25.3922 L652.0805,25.3922 L652.0805,28.3452 Z M653.3145,19.6222 C650.6125,19.6222 648.5125,21.7412 648.5125,24.7752 C648.5125,27.6112 650.3465,29.9282 653.3145,29.9282 C655.9835,29.9282 658.0835,27.8272 658.0835,24.7752 C658.0835,21.7412 655.9835,19.6222 653.3145,19.6222 L653.3145,19.6222 Z M653.3145,31.0132 C649.7285,31.0132 647.1775,28.3282 647.1775,24.7752 C647.1775,21.0242 650.0125,18.5392 653.3145,18.5392 C656.5835,18.5392 659.4185,21.0242 659.4185,24.7752 C659.4185,28.5282 656.5835,31.0132 653.3145,31.0132 L653.3145,31.0132 Z" id="Fill-4"/>
            </g>
        </g>
    </g>
</svg>
